<svg width="349" height="175" viewBox="0 0 349 175" fill="none" xmlns="http://www.w3.org/2000/svg">
<rect width="349" height="175" rx="24" fill="#FBFBFF"/>
<path d="M169.775 64.25L114.875 158.8V171" stroke="black" stroke-width="3.05"/>
<rect x="92" y="158.8" width="155.55" height="12.2" rx="6.1" fill="white" stroke="black" stroke-width="3.05"/>
<rect x="127.075" y="76.4497" width="42.7" height="41.175" rx="6.1" fill="white" stroke="black" stroke-width="3.05"/>
<path d="M142.325 77.9746V85.5996H154.525V77.9746" stroke="black" stroke-width="3.05"/>
<rect x="169.775" y="76.4497" width="42.7" height="41.175" rx="6.1" fill="white" stroke="black" stroke-width="3.05"/>
<path d="M185.025 77.9746V85.5996H197.225V77.9746" stroke="black" stroke-width="3.05"/>
<rect x="105.725" y="117.625" width="42.7" height="41.175" rx="6.1" fill="white" stroke="black" stroke-width="3.05"/>
<path d="M120.975 119.15V126.775H133.175V119.15" stroke="black" stroke-width="3.05"/>
<rect x="191.125" y="117.625" width="42.7" height="41.175" rx="6.1" fill="white" stroke="black" stroke-width="3.05"/>
<path d="M206.375 119.15V126.775H218.575V119.15" stroke="black" stroke-width="3.05"/>
<rect x="148.425" y="117.625" width="42.7" height="41.175" rx="6.1" fill="white" stroke="#FF7120" stroke-width="3.05"/>
<path d="M163.675 119.15V126.775H175.875V119.15" stroke="#FF7120" stroke-width="3.05"/>
<rect x="165.2" y="47.475" width="9.15" height="16.775" stroke="black" stroke-width="3.05"/>
<path d="M169.775 64.25L224.675 158.8V171" stroke="black" stroke-width="3.05"/>
<path d="M239.722 142.945L244.721 141.279L228.058 131.281L233.613 150.721L236.945 145.722L240.278 149.61L243.055 147.389L239.722 142.945Z" fill="white" stroke="#FF7120" stroke-width="2.11521"/>
<path d="M231.236 128.93L242.626 121.921M225.103 133.907L215.191 142.572M228.608 127.178V115.788M223.857 129.968L206 130.231M225.432 127.342L217.817 115" stroke="#FF7120" stroke-width="3.33645"/>
</svg>
