<svg width="216" height="32" viewBox="0 0 216 32" fill="none" xmlns="http://www.w3.org/2000/svg">
<path d="M53.452 0.275383L53.2902 5.09639C53.177 7.83045 52.9181 9.62619 51.5268 9.62619C51.365 9.62619 51.2033 9.61001 51.0577 9.57765L50.8635 12.3764C51.4298 12.5058 51.9475 12.5706 52.4166 12.5706C55.4904 12.5706 56.1375 9.67472 56.2831 4.96696L56.364 2.99326H59.8261V12.3764H63.2073V0.275383H53.452ZM71.7331 12.6191C75.5997 12.6191 78.4632 9.94975 78.4632 6.3259C78.4632 2.70206 75.5997 0.0327148 71.7331 0.0327148C67.8666 0.0327148 65.0193 2.70206 65.0193 6.3259C65.0193 9.94975 67.8666 12.6191 71.7331 12.6191ZM71.7331 9.77179C69.905 9.77179 68.4652 8.41285 68.4652 6.3259C68.4652 4.23896 69.905 2.86384 71.7331 2.86384C73.5612 2.86384 75.0011 4.23896 75.0011 6.3259C75.0011 8.41285 73.5612 9.77179 71.7331 9.77179ZM89.1568 0.275383H80.2913V12.3764H83.6563V2.99326H89.1406L89.1568 0.275383ZM90.6937 12.3764H93.9131L98.896 5.29052V12.3764H102.261V0.275383H99.0577L94.0587 7.37747V0.275383H90.6937V12.3764ZM110.754 12.6191C112.971 12.6191 114.767 11.794 115.948 10.338L113.764 8.36432C113.003 9.28645 112.081 9.77179 110.916 9.77179C108.926 9.77179 107.551 8.39667 107.551 6.3259C107.551 4.25514 108.926 2.86384 110.916 2.86384C112.081 2.86384 113.003 3.36536 113.764 4.28749L115.948 2.31379C114.767 0.841608 112.971 0.0327148 110.754 0.0327148C106.904 0.0327148 104.089 2.63735 104.089 6.3259C104.089 9.99828 106.904 12.6191 110.754 12.6191ZM127.127 0.275383H116.352V2.99326H120.057V12.3764H123.422V2.99326H127.127V0.275383ZM128.696 12.3764H131.931L136.898 5.29052V12.3764H140.279V0.275383H137.06L132.061 7.37747V0.275383H128.696V12.3764ZM149.646 0.275383V5.53319C149.032 5.80821 148.287 5.93764 147.495 5.93764C145.99 5.93764 145.214 5.17728 145.214 3.60802V0.275383H141.848V3.99629C141.848 7.07009 143.677 8.72023 147.058 8.72023C147.867 8.72023 148.708 8.57463 149.646 8.26725V12.3764H153.011V0.275383H149.646ZM158.981 9.72326V7.52307H164.352V4.96696H158.981V2.92855H165.08V0.275383H155.6V12.3764H165.307V9.72326H158.981ZM173.137 12.6191C175.369 12.6191 177.165 11.794 178.33 10.338L176.162 8.36432C175.402 9.28645 174.463 9.77179 173.315 9.77179C171.325 9.77179 169.933 8.39667 169.933 6.3259C169.933 4.25514 171.325 2.86384 173.315 2.86384C174.463 2.86384 175.402 3.36536 176.162 4.28749L178.33 2.31379C177.165 0.841608 175.369 0.0327148 173.137 0.0327148C169.303 0.0327148 166.488 2.63735 166.488 6.3259C166.488 9.99828 169.303 12.6191 173.137 12.6191ZM187.503 12.3764H191.369L187.551 6.11559L191.321 0.275383H187.729L184.85 4.98314H183.199V0.275383H179.802V12.3764H183.199V7.73338H184.769L187.503 12.3764ZM201.464 12.3764H205.024L199.669 0.275383H196.304L190.965 12.3764H194.459L195.398 10.0145H200.526L201.464 12.3764ZM196.401 7.50689L197.954 3.6242L199.523 7.50689H196.401ZM210.443 0.275383C207.11 0.275383 205.024 2.02259 205.024 4.8699C205.024 6.76271 205.929 8.12165 207.515 8.83347L205.056 12.3764H208.664L210.637 9.33499H212.514V12.3764H215.879V0.275383H210.443ZM210.508 2.97709H212.514V6.68182H210.475C209.181 6.68182 208.486 6.0347 208.486 4.82136C208.486 3.59185 209.181 2.97709 210.508 2.97709ZM51.9151 19.3329V31.434H55.2963V22.0508H59.8908V31.434H63.272V19.3329H51.9151ZM67.3651 19.3329L67.1871 24.1539C67.09 26.888 66.8312 28.6837 65.4237 28.6837C65.2781 28.6837 65.1163 28.6675 64.9707 28.6352L64.7766 31.434C65.3428 31.5634 65.8605 31.6443 66.3297 31.6443C69.4035 31.6443 70.0506 28.7322 70.1962 24.0245L70.2609 22.0508H73.7392V31.434H77.1042V19.3329H67.3651ZM88.995 31.434H92.5542L87.1993 19.3329H83.8343L78.4955 31.434H81.9738L82.9283 29.0882H88.0405L88.995 31.434ZM83.9313 26.5644L85.4844 22.6817L87.0375 26.5644H83.9313ZM103.07 19.3329H92.2953V22.0508H96.0163V31.434H99.3813V22.0508H103.07V19.3329ZM119.361 25.3511C119.361 22.1802 117.177 20.2874 113.084 20.0124V18.7667H109.946V20.0124C105.852 20.3198 103.668 22.1802 103.668 25.3511C103.668 28.4896 105.852 30.3824 109.946 30.6736V32.0002H113.084V30.6736C117.193 30.4309 119.361 28.4896 119.361 25.3511ZM113.084 28.0042V22.6817C115.09 22.9082 116.045 23.7495 116.045 25.3349C116.045 26.9203 115.139 27.7778 113.084 28.0042ZM106.985 25.3511C106.985 23.7495 107.875 22.9244 109.946 22.6817V27.9881C108.004 27.7454 106.985 26.9365 106.985 25.3511ZM127.094 31.6766C130.961 31.6766 133.808 29.0073 133.808 25.3834C133.808 21.7596 130.961 19.0902 127.094 19.0902C123.228 19.0902 120.364 21.7596 120.364 25.3834C120.364 29.0073 123.228 31.6766 127.094 31.6766ZM127.094 28.8455C125.266 28.8455 123.826 27.4704 123.826 25.3834C123.826 23.2965 125.266 21.9214 127.094 21.9214C128.922 21.9214 130.362 23.2965 130.362 25.3834C130.362 27.4704 128.922 28.8455 127.094 28.8455ZM141.169 19.3329H135.636V31.434H139.066V28.2631H141.169C144.469 28.2631 146.54 26.5644 146.54 23.8142C146.54 21.0478 144.469 19.3329 141.169 19.3329ZM140.959 25.5776H139.066V22.0346H140.959C142.382 22.0346 143.094 22.6817 143.094 23.8142C143.094 24.9143 142.382 25.5776 140.959 25.5776ZM162.136 31.434L162.103 19.3329H159.288L155.147 26.3217L150.892 19.3329H148.077V31.434H151.232V25.1569L154.338 30.2368H155.859L158.965 25.0275L158.981 31.434H162.136ZM174.01 31.434H177.569L172.215 19.3329H168.85L163.511 31.434H167.005L167.944 29.0882H173.072L174.01 31.434ZM168.947 26.5644L170.516 22.6817L172.069 26.5644H168.947Z" fill="white"/>
<path d="M0 0V6.85942H5.82407V31.3527H14.6896V0H0ZM45.6057 6.85942V0H21.0152V31.3527H29.8807V20.6106H43.7129V13.7512H29.8807V6.85942H45.6057Z" fill="#642BFE"/>
</svg>
