<svg width="79" height="30" viewBox="0 0 79 30" fill="none" xmlns="http://www.w3.org/2000/svg">
<g clip-path="url(#clip0_15523_2528)">
<path d="M45.4181 12.147L54.2714 9.77472C55.758 9.37637 57.1446 8.67048 58.3413 7.70267L58.9141 7.23945C59.5327 6.73915 59.3477 5.75179 58.5899 5.50942L54.4599 4.18857C53.136 3.76518 51.7161 3.74548 50.381 4.13199L29.7824 10.0953C28.8951 10.3522 27.9463 10.294 27.097 9.93079L20.5433 7.12767C20.3373 7.03955 20.1077 7.02318 19.8913 7.08117L18.9842 7.32421C18.8834 7.35122 18.8403 7.47036 18.9005 7.55561L22.5903 12.7813C23.8414 14.5534 25.9517 15.5121 28.1094 15.2887L37.2077 14.3469L32.3273 27.0427L33.5589 26.7127C35.2751 26.2528 36.8169 25.2952 37.9898 23.9605L49.2818 11.1117" stroke="white" stroke-linecap="round" stroke-linejoin="round"/>
<path d="M33.7229 9.06906L25.2444 2.54102L27.5471 1.92403C28.2523 1.73505 28.9959 1.74272 29.6971 1.9462L43.9283 6.07586" stroke="white" stroke-linejoin="round"/>
<path d="M33.2746 11.2593L33.6629 12.7082" stroke="white" stroke-linecap="round" stroke-linejoin="round"/>
<path d="M36.1724 10.4829L36.5606 11.9318" stroke="white" stroke-linecap="round" stroke-linejoin="round"/>
<path d="M39.0702 9.70654L39.4584 11.1554" stroke="white" stroke-linecap="round" stroke-linejoin="round"/>
<path d="M41.968 8.93018L42.3562 10.3791" stroke="white" stroke-linecap="round" stroke-linejoin="round"/>
<path d="M44.8657 8.15381L45.254 9.6027" stroke="white" stroke-linecap="round" stroke-linejoin="round"/>
<path d="M47.7635 7.37744L48.1517 8.82633" stroke="white" stroke-linecap="round" stroke-linejoin="round"/>
<path d="M50.6613 6.60059L51.0495 8.04947" stroke="white" stroke-linecap="round" stroke-linejoin="round"/>
</g>
<defs>
<clipPath id="clip0_15523_2528">
<rect width="78" height="30" fill="white" transform="translate(0.333374)"/>
</clipPath>
</defs>
</svg>
