<?xml version="1.0" standalone="no"?>
<!DOCTYPE svg PUBLIC "-//W3C//DTD SVG 20010904//EN"
 "http://www.w3.org/TR/2001/REC-SVG-20010904/DTD/svg10.dtd">
<svg version="1.0" xmlns="http://www.w3.org/2000/svg"
 width="164.000000pt" height="164.000000pt" viewBox="0 0 164.000000 164.000000"
 preserveAspectRatio="xMidYMid meet">
<metadata>
Created by potrace 1.14, written by Peter Selinger 2001-2017
</metadata>
<g transform="translate(0.000000,164.000000) scale(0.100000,-0.100000)"
fill="#000000" stroke="none">
<path d="M235 1581 c-74 -18 -136 -69 -169 -141 -20 -44 -20 -61 -21 -607 -1
-642 -3 -626 75 -703 76 -77 61 -76 702 -74 620 1 597 -2 672 64 56 50 74 92
88 209 0 3 -1 8 -2 11 -7 19 -7 40 1 40 6 0 6 8 -1 19 -5 11 -6 22 -2 25 5 3
5 30 2 61 -3 31 -3 58 1 61 4 2 3 20 -1 39 -5 21 -4 35 1 35 6 0 5 8 -1 19 -7
14 -7 22 0 26 8 5 7 11 -1 21 -9 11 -9 14 0 14 8 0 9 5 1 19 -6 12 -6 22 -1
25 5 3 5 21 1 41 -5 21 -4 35 1 35 6 0 5 8 -1 19 -6 12 -6 22 -1 25 5 3 5 21
1 41 -5 21 -4 35 1 35 6 0 5 9 -1 20 -8 14 -8 20 0 20 8 0 8 6 0 20 -8 14 -8
20 0 20 8 0 8 6 0 20 -6 11 -7 20 -2 20 5 0 6 18 2 40 -4 22 -3 40 2 40 5 0 4
9 -2 20 -6 11 -7 20 -2 20 5 0 6 18 2 40 -4 22 -3 40 2 40 5 0 4 9 -2 20 -8
14 -8 20 0 20 8 0 8 6 0 20 -8 14 -8 20 0 20 6 0 8 5 5 10 -4 6 -9 23 -11 37
-13 71 -65 137 -136 175 l-43 23 -565 1 c-311 1 -578 -2 -595 -5z"/>
</g>
</svg>
